<svg xmlns="http://www.w3.org/2000/svg" fill="#ffffff" height="24" viewBox="0 0 24 24" width="24" focusable="false" aria-hidden="true" style="pointer-events: none; display: inherit; width: 100%; height: 100%;"><path clip-rule="evenodd" d="M2.882 4.515c-.819.13-1.377.898-1.247 1.717L2 8.538v10.961c0 .829.672 1.5 1.5 1.5h17c.828 0 1.5-.671 1.5-1.5v-11.5H6.456L21.78 5.572l-.39-2.47c-.13-.817-.898-1.376-1.717-1.246l-16.79 2.66ZM4 13h2.5l-2-3H4v3Zm16 0h-.5l-2-3H20v3ZM9.5 13h2l-2-3h-2l2 3Zm7 0h-2l-2-3h2l2 3Z" fill-rule="evenodd"></path></svg>